<?xml version="1.0" encoding="UTF-8"?>
<!--Generator: Apple Native CoreSVG 175.5-->
<!DOCTYPE svg
PUBLIC "-//W3C//DTD SVG 1.1//EN"
       "http://www.w3.org/Graphics/SVG/1.1/DTD/svg11.dtd">
<svg version="1.1" xmlns="http://www.w3.org/2000/svg" xmlns:xlink="http://www.w3.org/1999/xlink" width="19.9219" height="19.9316">
 <g>
  <rect height="19.9316" opacity="0" width="19.9219" x="0" y="0"/>
  <path d="M9.96094 19.9219C15.4102 19.9219 19.9219 15.4102 19.9219 9.96094C19.9219 4.52148 15.4004 0 9.95117 0C4.51172 0 0 4.52148 0 9.96094C0 15.4102 4.52148 19.9219 9.96094 19.9219ZM6.77734 14.5215C6.41602 14.5215 6.18164 14.2969 6.18164 13.9258C6.18164 13.5938 6.34766 13.3887 6.70898 13.2812C7.46094 13.0664 8.11523 12.3633 8.11523 11.2891C8.11523 10.9668 8.05664 10.6348 7.96875 10.2832L6.77734 10.2832C6.45508 10.2832 6.21094 10.0684 6.21094 9.74609C6.21094 9.41406 6.45508 9.19922 6.77734 9.19922L7.70508 9.19922C7.60742 8.80859 7.53906 8.4082 7.53906 8.00781C7.53906 6.10352 8.80859 4.90234 10.8789 4.90234C11.5039 4.90234 12.0703 4.98047 12.5391 5.15625C12.9199 5.30273 13.0469 5.51758 13.0469 5.80078C13.0469 6.11328 12.8809 6.32812 12.5 6.32812C12.2168 6.32812 11.8164 6.09375 10.957 6.09375C9.63867 6.09375 8.85742 6.83594 8.85742 7.91992C8.85742 8.4082 8.94531 8.81836 9.0332 9.19922L11.8066 9.19922C12.1289 9.19922 12.3633 9.41406 12.3633 9.74609C12.3633 10.0684 12.1289 10.2832 11.8066 10.2832L9.29688 10.2832C9.36523 10.5762 9.4043 10.8887 9.4043 11.2402C9.4043 12.0996 9.05273 12.9004 8.53516 13.3398L12.9004 13.3398C13.2617 13.3398 13.5156 13.5742 13.5156 13.9355C13.5156 14.2969 13.2617 14.5215 12.9004 14.5215Z" fill="#ff9f0a"/>
 </g>
</svg>
