<?xml version="1.0" encoding="UTF-8"?>
<!--Generator: Apple Native CoreSVG 175.5-->
<!DOCTYPE svg
PUBLIC "-//W3C//DTD SVG 1.1//EN"
       "http://www.w3.org/Graphics/SVG/1.1/DTD/svg11.dtd">
<svg version="1.1" xmlns="http://www.w3.org/2000/svg" xmlns:xlink="http://www.w3.org/1999/xlink" width="22.8711" height="21.8075">
 <g>
  <rect height="21.8075" opacity="0" width="22.8711" x="0" y="0"/>
  <path d="M0 8.71134C0 9.63908 0.566406 10.2055 1.49414 10.2055L21.3672 10.2055C22.2949 10.2055 22.8711 9.63908 22.8711 8.71134L22.8711 8.23283C22.8711 7.31486 22.2949 6.72892 21.3672 6.72892L1.49414 6.72892C0.566406 6.72892 0 7.31486 0 8.23283ZM6.21094 20.9281L16.6602 20.9281C18.916 20.9281 19.6191 19.6098 19.9023 18.1938L21.2598 11.5434L1.62109 11.5434L2.96875 18.1938C3.25195 19.6098 3.95508 20.9281 6.21094 20.9281ZM6.8457 19.2485C6.47461 19.307 6.20117 19.1117 6.14258 18.7797L5.30273 13.8676C5.24414 13.5356 5.45898 13.2719 5.83008 13.2035C6.20117 13.1547 6.48438 13.3402 6.54297 13.6723L7.37305 18.5844C7.42188 18.9164 7.22656 19.1801 6.8457 19.2485ZM9.94141 19.2387C9.57031 19.2582 9.29688 19.0336 9.27734 18.6918L8.95508 13.8383C8.93555 13.4965 9.17969 13.2524 9.54102 13.2231C9.92188 13.1938 10.1758 13.4281 10.2051 13.7699L10.5273 18.6235C10.5469 18.9652 10.3027 19.2192 9.94141 19.2387ZM12.9492 19.2387C12.5781 19.2192 12.334 18.9652 12.3535 18.6235L12.6758 13.7699C12.7051 13.4281 12.959 13.1938 13.3398 13.2231C13.7012 13.2524 13.9453 13.4965 13.9258 13.8383L13.6035 18.6918C13.584 19.0336 13.3105 19.2582 12.9492 19.2387ZM16.0254 19.2485C15.6445 19.1801 15.4492 18.9164 15.498 18.5844L16.3281 13.6723C16.3867 13.3402 16.6699 13.1547 17.041 13.2035C17.4121 13.2719 17.627 13.5551 17.5684 13.8871L16.7285 18.7797C16.6699 19.1117 16.3867 19.307 16.0254 19.2485ZM3.14453 7.14884L5.09766 7.14884L8.53516 1.18205C8.79883 0.713296 8.58398 0.30314 8.22266 0.107828C7.87109-0.0777193 7.40234-0.0484224 7.13867 0.391031ZM17.7734 7.14884L19.7266 7.14884L15.7324 0.391031C15.4785-0.0386568 15.0098-0.0679536 14.6484 0.107828C14.2969 0.30314 14.0723 0.713296 14.3359 1.18205Z" fill="#ff9f0a"/>
 </g>
</svg>
